<svg width="175" height="229" viewBox="0 0 175 229" fill="none" xmlns="http://www.w3.org/2000/svg">
<path d="M56.4679 223.588C89.0598 229.692 115.791 217.108 120.246 215.011C175.616 187.958 186.018 111.976 154.064 61.4233C149.633 54.4399 117.169 3.25412 59.4067 2.79243C20.4087 2.52114 -11.5121 25.4931 -26.5003 46.5221C-69.4037 106.274 -18.694 209.409 56.4679 223.588Z" stroke="#ACACAC" stroke-opacity="0.15" stroke-width="1.58525" stroke-miterlimit="10"/>
<path d="M37.1611 223.444C70.4058 228.169 98.6001 215.073 103.248 212.811C161.743 184.808 176.544 111.3 146.447 63.9173C142.321 57.3286 111.714 9.31318 52.2357 10.9748C12.0952 12.1726 -21.9844 35.4316 -38.654 56.1755C-86.0075 115.22 -39.4856 212.667 37.1611 223.444Z" stroke="#ACACAC" stroke-opacity="0.15" stroke-width="1.58525" stroke-miterlimit="10"/>
<path d="M13.589 205.407C44.0253 207.939 70.8759 195.67 75.4288 193.49C131.34 167.302 149.807 104.557 125.072 65.9001C121.671 60.5818 96.5246 21.29 41.4267 25.3567C4.27001 28.1031 -28.8002 49.2569 -45.5483 67.5148C-93.1268 119.422 -56.5404 199.644 13.589 205.407Z" stroke="#ACACAC" stroke-opacity="0.15" stroke-width="1.58525" stroke-miterlimit="10"/>
<path d="M-7.36262 186.984C17.3366 188.102 39.8317 177.928 43.6116 176.165C90.3337 154.576 107.946 105.908 89.292 76.8528C86.7144 72.8037 67.7539 43.3522 22.5908 48.0264C-7.87887 51.1229 -35.6701 68.2358 -50.174 82.7537C-91.0076 123.842 -64.3378 184.415 -7.36262 186.984Z" stroke="#ACACAC" stroke-opacity="0.15" stroke-width="1.58525" stroke-miterlimit="10"/>
<path d="M-6.76123 167.535C12.5243 168.358 30.0754 160.453 32.9834 159.109C69.4317 142.307 83.2355 104.327 68.7042 81.7018C66.6465 78.6071 51.9069 55.5841 16.735 59.1758C-6.97484 61.5755 -28.6866 74.95 -39.9472 86.1877C-72.0066 118.339 -51.1413 165.521 -6.76123 167.535Z" stroke="#ACACAC" stroke-opacity="0.15" stroke-width="1.58525" stroke-miterlimit="10"/>
<path d="M-26.7558 171.261C-7.47026 172.084 10.0808 164.179 12.9888 162.835C49.4347 145.952 63.1427 108.055 48.6115 85.4295C46.5537 82.3348 31.8141 59.3118 -3.35782 62.9035C-27.0676 65.3032 -48.7794 78.6777 -60.04 89.9154C-92.1018 121.986 -71.2341 169.248 -26.7558 171.261Z" stroke="#ACACAC" stroke-opacity="0.15" stroke-width="1.58525" stroke-miterlimit="10"/>
<path d="M-42.6733 176.421C-23.3877 177.245 -5.83669 169.339 -2.92868 167.995C33.5172 151.113 47.2252 113.215 32.694 90.5898C30.6362 87.4951 15.8966 64.4722 -19.2753 68.0639C-42.9851 70.4636 -64.6969 83.838 -75.9575 95.0757C-108.017 127.227 -87.1491 174.489 -42.6733 176.421Z" stroke="#ACACAC" stroke-opacity="0.15" stroke-width="1.58525" stroke-miterlimit="10"/>
<path d="M122.224 96.9779C128.61 84.1629 114.668 70.5466 112.545 68.4204C104.263 60.3936 91.5331 54.5429 88.6569 56.7682C85.685 59.0758 97.0183 67.4436 101.365 84.9444C104.711 98.4497 101.223 106.469 105.78 107.985C110.146 109.665 118.798 103.792 122.224 96.9779Z" stroke="#ACACAC" stroke-opacity="0.15" stroke-width="1.58525" stroke-miterlimit="10"/>
</svg>
