<svg width="185" height="174" viewBox="0 0 185 174" fill="none" xmlns="http://www.w3.org/2000/svg">
<path d="M106.16 -43.4854C76.0456 -45.7641 54.6783 -31.8045 51.117 -29.4779C7.04433 0.326504 12.1944 69.7272 50.1619 112.068C55.4221 117.916 93.9626 160.776 145.373 155.495C180.075 151.894 204.086 128.074 213.42 107.672C240.222 49.6722 175.629 -38.1376 106.16 -43.4854Z" stroke="#ACACAC" stroke-opacity="0.15" stroke-width="1.58525" stroke-miterlimit="10"/>
<path d="M123.923 -45.6204C93.4223 -46.596 70.8026 -32.0086 67.0936 -29.5109C20.3215 1.5031 21.0979 69.2135 56.8941 108.944C61.8189 114.475 98.1894 154.726 150.837 147.354C186.354 142.311 212.285 117.983 223.19 97.6416C254.147 39.7516 194.22 -43.4776 123.923 -45.6204Z" stroke="#ACACAC" stroke-opacity="0.15" stroke-width="1.58525" stroke-miterlimit="10"/>
<path d="M148.856 -32.3239C121.194 -31.598 99.5522 -17.8593 95.9016 -15.4394C50.9587 13.7484 46.4149 72.248 75.8636 104.715C79.9135 109.182 109.851 142.183 158.279 133.056C190.937 126.898 216.441 104.519 227.921 86.3702C260.526 34.7777 212.579 -34.059 148.856 -32.3239Z" stroke="#ACACAC" stroke-opacity="0.15" stroke-width="1.58525" stroke-miterlimit="10"/>
<path d="M171.816 -18.2834C149.505 -16.8465 131.321 -5.41254 128.275 -3.44268C90.5931 20.7189 84.1201 66.4922 106.352 90.928C109.43 94.3355 132.011 119.099 171.525 110.394C198.194 104.572 219.794 86.3358 230 71.7644C258.694 30.5458 223.279 -21.6077 171.816 -18.2834Z" stroke="#ACACAC" stroke-opacity="0.15" stroke-width="1.58525" stroke-miterlimit="10"/>
<path d="M174.953 -0.823709C157.542 0.343066 143.347 9.23455 141.002 10.7387C111.598 29.552 106.494 65.2792 123.81 84.3066C126.241 86.9023 143.82 106.269 174.602 99.533C195.357 95.0117 212.23 80.7601 220.161 69.4776C242.71 37.2136 215.042 -3.40091 174.953 -0.823709Z" stroke="#ACACAC" stroke-opacity="0.15" stroke-width="1.58525" stroke-miterlimit="10"/>
<path d="M192.868 -6.52472C175.457 -5.35795 161.263 3.53355 158.917 5.0377C129.531 23.9235 124.496 59.5669 141.813 78.5943C144.244 81.1899 161.823 100.557 192.605 93.8207C213.36 89.2994 230.233 75.0478 238.164 63.7653C260.731 31.5736 233.045 -9.11343 192.868 -6.52472Z" stroke="#ACACAC" stroke-opacity="0.15" stroke-width="1.58525" stroke-miterlimit="10"/>
<path d="M206.791 -12.989C189.379 -11.8222 175.185 -2.93068 172.84 -1.42653C143.453 17.4593 138.419 53.1026 155.735 72.1301C158.167 74.7257 175.746 94.0924 206.528 87.3565C227.282 82.8352 244.156 68.5836 252.086 57.301C274.636 25.0369 246.95 -15.6501 206.791 -12.989Z" stroke="#ACACAC" stroke-opacity="0.15" stroke-width="1.58525" stroke-miterlimit="10"/>
<path d="M69.3164 77.2685C66.1094 89.3484 80.88 100.153 83.1392 101.846C91.9023 108.209 104.159 112.192 106.266 109.921C108.441 107.567 96.9389 101.198 89.8577 85.9811C84.4013 74.2374 85.9627 66.7277 81.6828 65.8193C77.54 64.7452 71.0485 70.8426 69.3164 77.2685Z" stroke="#ACACAC" stroke-opacity="0.15" stroke-width="1.58525" stroke-miterlimit="10"/>
</svg>
